<svg width="163" height="164" viewBox="0 0 163 164" fill="none" xmlns="http://www.w3.org/2000/svg">
<path d="M69.4764 7.82726C76.902 3.54007 86.0508 3.54006 93.4764 7.82725L139.926 34.6452C147.352 38.9324 151.926 46.8554 151.926 55.4298V109.066C151.926 117.64 147.352 125.563 139.926 129.85L93.4764 156.668C86.0508 160.955 76.902 160.955 69.4764 156.668L23.0264 129.85C15.6007 125.563 11.0263 117.64 11.0263 109.066V55.4298C11.0263 46.8554 15.6007 38.9324 23.0263 34.6452L69.4764 7.82726Z" fill="url(#paint0_linear_38_13)"/>
<path d="M121.171 66.0583C121.171 58.6028 115.773 52.384 108.679 51.1068C107.402 44.0136 101.183 38.6149 93.7279 38.6149C88.7038 38.6149 84.2436 41.068 81.4763 44.8378C78.7091 41.068 74.2489 38.6149 69.2248 38.6149C61.7693 38.6149 55.5508 44.0136 54.2733 51.1065C47.1801 52.384 41.7814 58.6028 41.7814 66.058C41.7814 68.4474 42.647 72.6596 44.987 75.111C42.979 77.6866 41.7814 80.9237 41.7814 84.4352C41.7814 89.7434 44.5539 94.5885 48.9301 97.3232C48.2558 99.0611 47.907 100.917 47.907 102.812C47.907 108.066 50.6695 112.957 55.0695 115.708C56.0145 121.458 61.0506 125.88 67.037 125.88C71.5865 125.88 78.0724 120.969 81.4763 118.096C84.8803 120.969 91.3661 125.88 95.9157 125.88C101.902 125.88 106.938 121.458 107.883 115.708C112.283 112.958 115.046 108.066 115.046 102.813C115.046 100.917 114.697 99.0614 114.023 97.3235C118.399 94.5888 121.171 89.7437 121.171 84.4355C121.171 80.924 119.974 77.6869 117.966 75.1113C120.305 72.6599 121.171 68.4474 121.171 66.0583ZM78.5358 112.871C74.4554 116.445 69.1945 120 67.0367 120C63.6418 120 60.8402 117.238 60.7915 113.842C60.7912 113.829 60.7885 113.816 60.7882 113.803C60.9125 110.515 63.6175 107.839 66.9333 107.792C68.5566 107.768 69.8544 106.433 69.8312 104.809C69.8083 103.2 68.4964 101.911 66.8921 101.911C66.8777 101.911 66.8633 101.911 66.8489 101.911C62.0937 101.979 57.9793 104.83 56.0553 108.888C54.6241 107.223 53.7873 105.073 53.7873 102.812C53.7873 100.958 54.3309 99.1678 55.3595 97.6343C55.8664 96.8786 55.9951 95.931 55.7074 95.0678C55.4201 94.2045 54.7493 93.5228 53.8907 93.2217C50.165 91.9147 47.6617 88.3839 47.6617 84.4352C47.6617 79.3009 51.8387 75.1239 56.9729 75.1239C62.1072 75.1239 66.2839 79.3009 66.2839 84.4352C66.2839 86.0588 67.6005 87.3755 69.2242 87.3755C70.8479 87.3755 72.1645 86.0588 72.1645 84.4352C72.1645 76.0583 65.3493 69.2433 56.9729 69.2433C54.2374 69.2433 51.6677 69.9708 49.4478 71.2416C48.6204 70.5379 47.662 67.8703 47.662 66.058C47.662 60.9237 51.839 56.7467 56.9732 56.7467C58.5969 56.7467 59.9135 55.4301 59.9135 53.8064C59.9135 48.6722 64.0902 44.4955 69.2245 44.4955C74.3588 44.4955 78.5358 48.6722 78.5358 53.8064V112.871ZM93.7282 87.3755C95.3519 87.3755 96.6685 86.0588 96.6685 84.4352C96.6685 79.3009 100.845 75.1239 105.979 75.1239C111.114 75.1239 115.291 79.3009 115.291 84.4352C115.291 88.3839 112.787 91.915 109.062 93.2217C108.203 93.5228 107.532 94.2045 107.245 95.0678C106.958 95.931 107.086 96.8786 107.593 97.6343C108.622 99.1681 109.165 100.958 109.165 102.812C109.165 105.073 108.328 107.223 106.897 108.888C104.973 104.83 100.859 101.98 96.1035 101.912C96.0891 101.911 96.0747 101.911 96.0603 101.911C94.456 101.911 93.1441 103.2 93.1212 104.809C93.0979 106.433 94.3955 107.769 96.0191 107.792C99.3361 107.839 102.041 110.516 102.164 113.805C102.164 113.818 102.162 113.83 102.161 113.843C102.113 117.238 99.3111 120 95.916 120C93.7582 120 88.497 116.445 84.4169 112.872V53.8064C84.4169 48.6722 88.5939 44.4955 93.7282 44.4955C98.8625 44.4955 103.039 48.6722 103.039 53.8064C103.039 55.4301 104.356 56.7467 105.979 56.7467C111.114 56.7467 115.291 60.9237 115.291 66.058C115.29 67.8703 114.332 70.5379 113.505 71.2416C111.285 69.9708 108.715 69.2433 105.979 69.2433C97.6028 69.2433 90.7879 76.0586 90.7879 84.4352C90.7879 86.0588 92.1045 87.3755 93.7282 87.3755Z" fill="white"/>
<defs>
<linearGradient id="paint0_linear_38_13" x1="43.4196" y1="15.0907" x2="121.565" y2="145.617" gradientUnits="userSpaceOnUse">
<stop stop-color="#3B82F6"/>
<stop offset="1" stop-color="#4F46E5"/>
</linearGradient>
</defs>
</svg>
